<svg width="21" height="21" viewBox="0 0 21 21" fill="none" xmlns="http://www.w3.org/2000/svg">
<path d="M10.1563 0C8.14754 0 6.18393 0.595654 4.51374 1.71164C2.84356 2.82762 1.54181 4.41381 0.773103 6.26962C0.00440055 8.12543 -0.196727 10.1675 0.195154 12.1376C0.587035 14.1078 1.55432 15.9174 2.9747 17.3378C4.39508 18.7582 6.20475 19.7255 8.17487 20.1173C10.145 20.5092 12.1871 20.3081 14.0429 19.5394C15.8987 18.7707 17.4849 17.4689 18.6009 15.7988C19.7169 14.1286 20.3125 12.165 20.3125 10.1562C20.3097 7.46352 19.2387 4.88189 17.3347 2.97784C15.4306 1.07379 12.849 0.00284357 10.1563 0ZM13.834 12.7285C13.9066 12.8011 13.9642 12.8873 14.0034 12.9821C14.0427 13.077 14.0629 13.1786 14.0629 13.2812C14.0629 13.3839 14.0427 13.4855 14.0034 13.5804C13.9642 13.6752 13.9066 13.7614 13.834 13.834C13.7614 13.9066 13.6752 13.9641 13.5804 14.0034C13.4856 14.0427 13.3839 14.0629 13.2813 14.0629C13.1786 14.0629 13.077 14.0427 12.9821 14.0034C12.8873 13.9641 12.8011 13.9066 12.7285 13.834L10.1563 11.2607L7.58399 13.834C7.5114 13.9066 7.42523 13.9641 7.33039 14.0034C7.23555 14.0427 7.13391 14.0629 7.03125 14.0629C6.9286 14.0629 6.82695 14.0427 6.73212 14.0034C6.63728 13.9641 6.55111 13.9066 6.47852 13.834C6.40593 13.7614 6.34836 13.6752 6.30907 13.5804C6.26979 13.4855 6.24957 13.3839 6.24957 13.2812C6.24957 13.1786 6.26979 13.077 6.30907 12.9821C6.34836 12.8873 6.40593 12.8011 6.47852 12.7285L9.05176 10.1562L6.47852 7.58398C6.33193 7.43739 6.24957 7.23857 6.24957 7.03125C6.24957 6.82393 6.33193 6.62511 6.47852 6.47852C6.62511 6.33192 6.82394 6.24957 7.03125 6.24957C7.23857 6.24957 7.4374 6.33192 7.58399 6.47852L10.1563 9.05176L12.7285 6.47852C12.8011 6.40593 12.8873 6.34835 12.9821 6.30907C13.077 6.26978 13.1786 6.24957 13.2813 6.24957C13.3839 6.24957 13.4856 6.26978 13.5804 6.30907C13.6752 6.34835 13.7614 6.40593 13.834 6.47852C13.9066 6.5511 13.9642 6.63727 14.0034 6.73211C14.0427 6.82695 14.0629 6.9286 14.0629 7.03125C14.0629 7.1339 14.0427 7.23555 14.0034 7.33039C13.9642 7.42523 13.9066 7.5114 13.834 7.58398L11.2607 10.1562L13.834 12.7285Z" fill="#EFF8FF"/>
</svg>
