<svg width="15" height="16" viewBox="0 0 15 16" fill="none" xmlns="http://www.w3.org/2000/svg">
<path d="M15 7.15101V14.3737C15 14.7052 14.8683 15.0231 14.6339 15.2575C14.3994 15.492 14.0815 15.6237 13.75 15.6237H1.25C0.918478 15.6237 0.600536 15.492 0.366116 15.2575C0.131696 15.0231 1.44436e-08 14.7052 1.44436e-08 14.3737V7.15101C-2.62834e-05 6.97801 0.0358587 6.80688 0.105384 6.64847C0.174909 6.49005 0.27656 6.3478 0.403906 6.2307L6.6539 0.333827L6.66249 0.325233C6.8926 0.115963 7.19247 0 7.50351 0C7.81455 0 8.11441 0.115963 8.34452 0.325233C8.34719 0.32829 8.35006 0.331162 8.35312 0.333827L14.6031 6.2307C14.7292 6.34841 14.8295 6.49095 14.8978 6.64933C14.9661 6.80772 15.0009 6.97853 15 7.15101Z" fill="#EFF8FF"/>
</svg>
