<svg width="15" height="13" viewBox="0 0 15 13" fill="none" xmlns="http://www.w3.org/2000/svg">
<path d="M15 5.625V6.875C15 7.04076 14.9342 7.19973 14.8169 7.31694C14.6997 7.43415 14.5408 7.5 14.375 7.5H0.625C0.45924 7.5 0.300269 7.43415 0.183058 7.31694C0.0658481 7.19973 0 7.04076 0 6.875V5.625C0 5.45924 0.0658481 5.30027 0.183058 5.18306C0.300269 5.06585 0.45924 5 0.625 5H14.375C14.5408 5 14.6997 5.06585 14.8169 5.18306C14.9342 5.30027 15 5.45924 15 5.625ZM14.375 10H0.625C0.45924 10 0.300269 10.0658 0.183058 10.1831C0.0658481 10.3003 0 10.4592 0 10.625V11.875C0 12.0408 0.0658481 12.1997 0.183058 12.3169C0.300269 12.4342 0.45924 12.5 0.625 12.5H14.375C14.5408 12.5 14.6997 12.4342 14.8169 12.3169C14.9342 12.1997 15 12.0408 15 11.875V10.625C15 10.4592 14.9342 10.3003 14.8169 10.1831C14.6997 10.0658 14.5408 10 14.375 10ZM14.375 0H0.625C0.45924 0 0.300269 0.0658481 0.183058 0.183058C0.0658481 0.300269 0 0.45924 0 0.625V1.875C0 2.04076 0.0658481 2.19973 0.183058 2.31694C0.300269 2.43415 0.45924 2.5 0.625 2.5H14.375C14.5408 2.5 14.6997 2.43415 14.8169 2.31694C14.9342 2.19973 15 2.04076 15 1.875V0.625C15 0.45924 14.9342 0.300269 14.8169 0.183058C14.6997 0.0658481 14.5408 0 14.375 0Z" fill="#EFF8FF"/>
</svg>
