<svg width="92" height="37" viewBox="0 0 92 37" fill="none" xmlns="http://www.w3.org/2000/svg">
<g id="publik">
<path d="M4.63206 10.9217C5.31035 10.0329 6.23424 9.28445 7.40372 8.67632C8.5732 8.06819 9.8947 7.76413 11.3682 7.76413C13.0523 7.76413 14.5843 8.18514 15.9643 9.02716C17.3677 9.8458 18.467 11.0036 19.2622 12.5005C20.0575 13.9974 20.4551 15.7166 20.4551 17.6579C20.4551 19.5992 20.0575 21.3418 19.2622 22.8855C18.467 24.4058 17.3677 25.5987 15.9643 26.4641C14.5843 27.3061 13.0523 27.7271 11.3682 27.7271C9.8947 27.7271 8.58489 27.4347 7.4388 26.85C6.29272 26.2419 5.35713 25.4934 4.63206 24.6046V36.6034H0.632446V8.07989H4.63206V10.9217ZM16.3853 17.6579C16.3853 16.3247 16.1046 15.1786 15.5433 14.2196C15.0053 13.2373 14.2802 12.5005 13.3681 12.0093C12.4792 11.4948 11.5203 11.2375 10.4911 11.2375C9.48539 11.2375 8.52642 11.4948 7.61422 12.0093C6.72542 12.5239 6.00035 13.2724 5.439 14.2547C4.90104 15.2371 4.63206 16.3949 4.63206 17.7281C4.63206 19.0613 4.90104 20.2308 5.439 21.2365C6.00035 22.2189 6.72542 22.9673 7.61422 23.4819C8.52642 23.9965 9.48539 24.2538 10.4911 24.2538C11.5203 24.2538 12.4792 23.9965 13.3681 23.4819C14.2802 22.9439 15.0053 22.1721 15.5433 21.1663C16.1046 20.1606 16.3853 18.9911 16.3853 17.6579Z" fill="#010917"/>
<path d="M39.1106 8.07989V27.4113H35.111V25.1309C34.4795 25.9261 33.6492 26.5576 32.62 27.0254C31.6143 27.4698 30.5383 27.692 29.3923 27.692C27.8719 27.692 26.5037 27.3763 25.2874 26.7447C24.0945 26.1132 23.1473 25.1776 22.4456 23.938C21.7673 22.6984 21.4281 21.2014 21.4281 19.4472V8.07989H25.3926V18.8508C25.3926 20.5816 25.8254 21.9148 26.6908 22.8504C27.5562 23.7626 28.7374 24.2187 30.2343 24.2187C31.7312 24.2187 32.9124 23.7626 33.7778 22.8504C34.6666 21.9148 35.111 20.5816 35.111 18.8508V8.07989H39.1106Z" fill="#010917"/>
<path d="M45.5807 10.9568C46.2589 10.0212 47.1828 9.26106 48.3523 8.67632C49.5452 8.06819 50.8667 7.76413 52.3168 7.76413C54.0243 7.76413 55.568 8.17345 56.948 8.99208C58.328 9.81071 59.4156 10.9802 60.2108 12.5005C61.0061 13.9974 61.4037 15.7166 61.4037 17.6579C61.4037 19.5992 61.0061 21.3418 60.2108 22.8855C59.4156 24.4058 58.3163 25.5987 56.9129 26.4641C55.5329 27.3061 54.0009 27.7271 52.3168 27.7271C50.8199 27.7271 49.4867 27.4347 48.3172 26.85C47.1711 26.2653 46.2589 25.5168 45.5807 24.6046V27.4113H41.581V1.44895H45.5807V10.9568ZM57.3339 17.6579C57.3339 16.3247 57.0532 15.1786 56.4919 14.2196C55.9539 13.2373 55.2288 12.5005 54.3167 12.0093C53.4278 11.4948 52.4689 11.2375 51.4397 11.2375C50.434 11.2375 49.475 11.4948 48.5628 12.0093C47.674 12.5239 46.9489 13.2724 46.3876 14.2547C45.8496 15.2371 45.5807 16.3949 45.5807 17.7281C45.5807 19.0613 45.8496 20.2308 46.3876 21.2365C46.9489 22.2189 47.674 22.9673 48.5628 23.4819C49.475 23.9965 50.434 24.2538 51.4397 24.2538C52.4689 24.2538 53.4278 23.9965 54.3167 23.4819C55.2288 22.9439 55.9539 22.1721 56.4919 21.1663C57.0532 20.1606 57.3339 18.9911 57.3339 17.6579Z" fill="#010917"/>
<path d="M66.5518 1.44895V27.4113H62.5521V1.44895H66.5518Z" fill="#010917"/>
<path d="M71.031 5.51873C70.306 5.51873 69.6978 5.27314 69.2066 4.78196C68.7155 4.29078 68.4699 3.68265 68.4699 2.95758C68.4699 2.2325 68.7155 1.62437 69.2066 1.13319C69.6978 0.642014 70.306 0.396423 71.031 0.396423C71.7327 0.396423 72.3291 0.642014 72.8203 1.13319C73.3115 1.62437 73.5571 2.2325 73.5571 2.95758C73.5571 3.68265 73.3115 4.29078 72.8203 4.78196C72.3291 5.27314 71.7327 5.51873 71.031 5.51873ZM72.9958 8.07989V27.4113H68.9961V8.07989H72.9958Z" fill="#010917"/>
<path d="M83.0885 17.7632L91.9999 27.4113H86.597L79.4398 19.0964V27.4113H75.4401V1.44895H79.4398V16.5352L86.4566 8.07989H91.9999L83.0885 17.7632Z" fill="#010917"/>
</g>
</svg>
