<svg width="92" height="37" viewBox="0 0 92 37" fill="none" xmlns="http://www.w3.org/2000/svg">
<g id="publik">
<path d="M4.13206 10.5253C4.81035 9.63649 5.73424 8.88803 6.90372 8.2799C8.0732 7.67177 9.3947 7.36771 10.8682 7.36771C12.5523 7.36771 14.0843 7.78872 15.4643 8.63074C16.8677 9.44938 17.967 10.6072 18.7622 12.1041C19.5575 13.601 19.9551 15.3202 19.9551 17.2615C19.9551 19.2028 19.5575 20.9453 18.7622 22.489C17.967 24.0094 16.8677 25.2022 15.4643 26.0676C14.0843 26.9097 12.5523 27.3307 10.8682 27.3307C9.3947 27.3307 8.08489 27.0383 6.9388 26.4536C5.79272 25.8454 4.85713 25.097 4.13206 24.2082V36.207H0.132446V7.68347H4.13206V10.5253ZM15.8853 17.2615C15.8853 15.9283 15.6046 14.7822 15.0433 13.8232C14.5053 12.8409 13.7802 12.1041 12.8681 11.6129C11.9792 11.0983 11.0203 10.8411 9.99114 10.8411C8.98539 10.8411 8.02642 11.0983 7.11422 11.6129C6.22542 12.1275 5.50035 12.8759 4.939 13.8583C4.40104 14.8407 4.13206 15.9984 4.13206 17.3317C4.13206 18.6649 4.40104 19.8343 4.939 20.8401C5.50035 21.8224 6.22542 22.5709 7.11422 23.0855C8.02642 23.6 8.98539 23.8573 9.99114 23.8573C11.0203 23.8573 11.9792 23.6 12.8681 23.0855C13.7802 22.5475 14.5053 21.7757 15.0433 20.7699C15.6046 19.7642 15.8853 18.5947 15.8853 17.2615Z" fill="#EFF8FF"/>
<path d="M38.6106 7.68347V27.0149H34.611V24.7344C33.9795 25.5297 33.1492 26.1612 32.12 26.629C31.1143 27.0734 30.0383 27.2956 28.8923 27.2956C27.3719 27.2956 26.0037 26.9798 24.7874 26.3483C23.5945 25.7168 22.6473 24.7812 21.9456 23.5416C21.2673 22.3019 20.9281 20.805 20.9281 19.0508V7.68347H24.8926V18.4543C24.8926 20.1852 25.3254 21.5184 26.1908 22.454C27.0562 23.3662 28.2374 23.8222 29.7343 23.8222C31.2312 23.8222 32.4124 23.3662 33.2778 22.454C34.1666 21.5184 34.611 20.1852 34.611 18.4543V7.68347H38.6106Z" fill="#EFF8FF"/>
<path d="M45.0807 10.5604C45.7589 9.6248 46.6828 8.86464 47.8523 8.2799C49.0452 7.67177 50.3667 7.36771 51.8168 7.36771C53.5243 7.36771 55.068 7.77702 56.448 8.59566C57.828 9.41429 58.9156 10.5838 59.7108 12.1041C60.5061 13.601 60.9037 15.3202 60.9037 17.2615C60.9037 19.2028 60.5061 20.9453 59.7108 22.489C58.9156 24.0094 57.8163 25.2022 56.4129 26.0676C55.0329 26.9097 53.5009 27.3307 51.8168 27.3307C50.3199 27.3307 48.9867 27.0383 47.8172 26.4536C46.6711 25.8688 45.7589 25.1204 45.0807 24.2082V27.0149H41.081V1.05253H45.0807V10.5604ZM56.8339 17.2615C56.8339 15.9283 56.5532 14.7822 55.9919 13.8232C55.4539 12.8409 54.7288 12.1041 53.8167 11.6129C52.9278 11.0983 51.9689 10.8411 50.9397 10.8411C49.934 10.8411 48.975 11.0983 48.0628 11.6129C47.174 12.1275 46.4489 12.8759 45.8876 13.8583C45.3496 14.8407 45.0807 15.9984 45.0807 17.3317C45.0807 18.6649 45.3496 19.8343 45.8876 20.8401C46.4489 21.8224 47.174 22.5709 48.0628 23.0855C48.975 23.6 49.934 23.8573 50.9397 23.8573C51.9689 23.8573 52.9278 23.6 53.8167 23.0855C54.7288 22.5475 55.4539 21.7757 55.9919 20.7699C56.5532 19.7642 56.8339 18.5947 56.8339 17.2615Z" fill="#EFF8FF"/>
<path d="M66.0518 1.05253V27.0149H62.0521V1.05253H66.0518Z" fill="#EFF8FF"/>
<path d="M70.531 5.12231C69.806 5.12231 69.1978 4.87672 68.7066 4.38554C68.2155 3.89436 67.9699 3.28623 67.9699 2.56116C67.9699 1.83608 68.2155 1.22795 68.7066 0.736772C69.1978 0.245591 69.806 0 70.531 0C71.2327 0 71.8291 0.245591 72.3203 0.736772C72.8115 1.22795 73.0571 1.83608 73.0571 2.56116C73.0571 3.28623 72.8115 3.89436 72.3203 4.38554C71.8291 4.87672 71.2327 5.12231 70.531 5.12231ZM72.4958 7.68347V27.0149H68.4961V7.68347H72.4958Z" fill="#EFF8FF"/>
<path d="M82.5885 17.3667L91.4999 27.0149H86.097L78.9398 18.6999V27.0149H74.9401V1.05253H78.9398V16.1388L85.9566 7.68347H91.4999L82.5885 17.3667Z" fill="#EFF8FF"/>
</g>
</svg>
