<svg width="15" height="15" viewBox="0 0 15 15" fill="none" xmlns="http://www.w3.org/2000/svg">
<path d="M15 5.76923V9.23077C15 9.53679 14.8784 9.83027 14.662 10.0467C14.4457 10.263 14.1522 10.3846 13.8462 10.3846H10.3846V13.8462C10.3846 14.1522 10.263 14.4457 10.0467 14.662C9.83027 14.8784 9.53679 15 9.23077 15H5.76923C5.46321 15 5.16973 14.8784 4.95334 14.662C4.73695 14.4457 4.61538 14.1522 4.61538 13.8462V10.3846H1.15385C0.847827 10.3846 0.554342 10.263 0.337954 10.0467C0.121566 9.83027 0 9.53679 0 9.23077V5.76923C0 5.46321 0.121566 5.16973 0.337954 4.95334C0.554342 4.73695 0.847827 4.61538 1.15385 4.61538H4.61538V1.15385C4.61538 0.847827 4.73695 0.554342 4.95334 0.337954C5.16973 0.121566 5.46321 0 5.76923 0H9.23077C9.53679 0 9.83027 0.121566 10.0467 0.337954C10.263 0.554342 10.3846 0.847827 10.3846 1.15385V4.61538H13.8462C14.1522 4.61538 14.4457 4.73695 14.662 4.95334C14.8784 5.16973 15 5.46321 15 5.76923Z" fill="#EFF8FF"/>
</svg>
