<svg width="166" height="150" viewBox="0 0 166 150" fill="none" xmlns="http://www.w3.org/2000/svg">
<path id="Star 1" d="M104.072 3.36605C117.045 -3.72912 132.966 5.21958 133.648 19.99L134.293 33.945C134.6 40.5904 138.191 46.6482 143.874 50.1068L155.807 57.3694C168.438 65.0565 168.649 83.3186 156.199 91.2948L144.436 98.8306C138.834 102.419 135.383 108.558 135.23 115.209L134.907 129.175C134.565 143.957 118.855 153.271 105.722 146.476L93.3143 140.057C87.4057 137 80.3639 137.081 74.5273 140.274L62.2708 146.977C49.2982 154.072 33.3775 145.124 32.6951 130.353L32.0504 116.398C31.7434 109.753 28.1522 103.695 22.4694 100.236L10.5358 92.9737C-2.09513 85.2867 -2.30565 67.0246 10.1447 59.0484L21.9077 51.5126C27.5093 47.924 30.96 41.785 31.1137 35.1343L31.4366 21.1682C31.7783 6.38594 47.4885 -2.92738 60.6213 3.86688L73.029 10.286C78.9376 13.3429 85.9794 13.2617 91.816 10.0695L104.072 3.36605Z" fill="#349AF4"/>
</svg>
