<svg width="26" height="28" viewBox="0 0 26 28" fill="none" xmlns="http://www.w3.org/2000/svg">
<path id="Star 1" d="M8.80438 2.71137C10.6567 -0.25465 14.9758 -0.25465 16.8281 2.71137C17.6615 4.04582 19.1038 4.87856 20.6762 4.93304C24.171 5.05415 26.3306 8.79468 24.688 11.8818C23.9491 13.2707 23.9491 14.9362 24.688 16.3252C26.3306 19.4123 24.171 23.1528 20.6762 23.2739C19.1038 23.3284 17.6615 24.1611 16.8281 25.4956C14.9758 28.4616 10.6567 28.4616 8.80438 25.4956C7.97102 24.1611 6.52868 23.3284 4.95633 23.2739C1.46154 23.1528 -0.698053 19.4123 0.944456 16.3252C1.68344 14.9362 1.68344 13.2707 0.944456 11.8818C-0.698053 8.79468 1.46154 5.05415 4.95633 4.93304C6.52868 4.87856 7.97102 4.04582 8.80438 2.71137Z" fill="#349AF4"/>
</svg>
