<svg width="15" height="13" viewBox="0 0 15 13" fill="none" xmlns="http://www.w3.org/2000/svg">
<path d="M13.8462 0H1.15385C0.847827 0 0.554342 0.121566 0.337954 0.337954C0.121566 0.554342 0 0.847827 0 1.15385V11.5385C0 11.8445 0.121566 12.138 0.337954 12.3544C0.554342 12.5707 0.847827 12.6923 1.15385 12.6923H13.8462C14.1522 12.6923 14.4457 12.5707 14.662 12.3544C14.8784 12.138 15 11.8445 15 11.5385V1.15385C15 0.847827 14.8784 0.554342 14.662 0.337954C14.4457 0.121566 14.1522 0 13.8462 0ZM12.3736 9.74712C12.3216 9.77308 11.0834 10.3846 9.80769 10.3846C8.51755 10.3846 7.83966 10.0457 7.24183 9.74712C6.68798 9.47019 6.20986 9.23077 5.19231 9.23077C4.19423 9.23077 3.15216 9.74207 3.14207 9.74712C3.07426 9.78097 3.00045 9.80114 2.92485 9.80647C2.84924 9.8118 2.77333 9.80219 2.70144 9.77818C2.62956 9.75418 2.5631 9.71624 2.50587 9.66655C2.44865 9.61686 2.40176 9.55639 2.36791 9.48858C2.29953 9.35164 2.28836 9.19314 2.33684 9.04796C2.38533 8.90278 2.4895 8.7828 2.62644 8.71442C2.67837 8.68846 3.91659 8.07692 5.19231 8.07692C6.48245 8.07692 7.16034 8.41586 7.75817 8.71442C8.31202 8.99135 8.79014 9.23077 9.80769 9.23077C10.8058 9.23077 11.8478 8.71947 11.8579 8.71442C11.9949 8.64605 12.1534 8.63487 12.2986 8.68336C12.4437 8.73184 12.5637 8.83601 12.6321 8.97296C12.7005 9.1099 12.7116 9.2684 12.6632 9.41358C12.6147 9.55876 12.5105 9.67874 12.3736 9.74712ZM12.3736 6.8625C12.3216 6.88846 11.0834 7.5 9.80769 7.5C8.51755 7.5 7.83966 7.16106 7.24183 6.8625C6.68798 6.58558 6.20986 6.34615 5.19231 6.34615C4.19423 6.34615 3.15216 6.85745 3.14207 6.8625C3.00512 6.93088 2.84663 6.94205 2.70144 6.89357C2.55626 6.84508 2.43628 6.74091 2.36791 6.60397C2.29953 6.46702 2.28836 6.30853 2.33684 6.16334C2.38533 6.01816 2.4895 5.89818 2.62644 5.82981C2.67837 5.80385 3.91659 5.19231 5.19231 5.19231C6.48245 5.19231 7.16034 5.53125 7.75817 5.82981C8.31202 6.10673 8.79014 6.34615 9.80769 6.34615C10.8058 6.34615 11.8478 5.83486 11.8579 5.82981C11.9949 5.76143 12.1534 5.75026 12.2986 5.79874C12.4437 5.84723 12.5637 5.9514 12.6321 6.08834C12.7005 6.22529 12.7116 6.38378 12.6632 6.52896C12.6147 6.67415 12.5105 6.79412 12.3736 6.8625ZM12.3736 3.97788C12.3216 4.00385 11.0834 4.61538 9.80769 4.61538C8.51755 4.61538 7.83966 4.27644 7.24183 3.97788C6.68798 3.70096 6.20986 3.46154 5.19231 3.46154C4.19423 3.46154 3.15216 3.97284 3.14207 3.97788C3.00512 4.04626 2.84663 4.05744 2.70144 4.00895C2.55626 3.96047 2.43628 3.85629 2.36791 3.71935C2.29953 3.58241 2.28836 3.42391 2.33684 3.27873C2.38533 3.13354 2.4895 3.01357 2.62644 2.94519C2.67837 2.91923 3.91659 2.30769 5.19231 2.30769C6.48245 2.30769 7.16034 2.64663 7.75817 2.94519C8.31202 3.22212 8.79014 3.46154 9.80769 3.46154C10.8058 3.46154 11.8478 2.95024 11.8579 2.94519C11.9949 2.87682 12.1534 2.86564 12.2986 2.91413C12.4437 2.96261 12.5637 3.06678 12.6321 3.20373C12.7005 3.34067 12.7116 3.49917 12.6632 3.64435C12.6147 3.78953 12.5105 3.90951 12.3736 3.97788Z" fill="#EFF8FF"/>
</svg>
